<?xml version="1.0" encoding="utf-8"?>
<!-- Generator: Adobe Illustrator 24.3.0, SVG Export Plug-In . SVG Version: 6.00 Build 0)  -->
<svg version="1.1" id="Layer_1" xmlns="http://www.w3.org/2000/svg" xmlns:xlink="http://www.w3.org/1999/xlink" x="0px" y="0px"
	 viewBox="0 0 370 370" style="enable-background:new 0 0 370 370;" xml:space="preserve">
<style type="text/css">
	.st0{fill:url(#SVGID_1_);}
	.st1{fill:#D0D3D4;}
</style>
<linearGradient id="SVGID_1_" gradientUnits="userSpaceOnUse" x1="87.4" y1="146.5" x2="283.6" y2="146.5">
	<stop  offset="5.154639e-03" style="stop-color:#5DADE2"/>
	<stop  offset="1" style="stop-color:#2980B9"/>
</linearGradient>
<path class="st0" d="M283.6,171.3c0,67-33.2,84.5-84,113.5c-4.6,2.6-9.3,5.3-14.1,8.2c-3.2-1.9-6.3-3.7-9.3-5.4
	c-53.5-30.8-88.8-47.2-88.8-116.3c0-73,39.4-136.8,98.1-171.3C244.2,34.5,283.6,98.3,283.6,171.3z"/>
<path class="st1" d="M199.6,284.8v32.1l-2.5,18.1c0,0.1,0,0.2-0.1,0.4c-0.4,1.4-0.8,2.8-1.3,4.2c-2.3,7-5.7,13.4-10.9,18.7
	c-5.7,5.8-12.7,9.4-20.5,11.2c-9.6,2.2-25.7-6.3-33.5-13.5c-1.9-1.8-0.4-5,2.2-4.7l5.9,0.7c5.7,0.6,11.5,0.5,17.1-0.8
	c8.1-1.9,13.6-6.9,16.8-14.5c1.8-4.1,2.8-8.5,3.4-12.9v-36.2c3,1.8,6.1,3.5,9.3,5.4C190.3,290.2,195,287.5,199.6,284.8z"/>
</svg>
