<?xml version="1.0" encoding="utf-8"?>
<!-- Generator: Adobe Illustrator 24.0.0, SVG Export Plug-In . SVG Version: 6.00 Build 0)  -->
<svg version="1.1" id="b7ff5eec-b031-4b55-ad80-a01491e5732a"
	 xmlns="http://www.w3.org/2000/svg" xmlns:xlink="http://www.w3.org/1999/xlink" x="0px" y="0px" viewBox="0 0 1817.8 398.3"
	 style="enable-background:new 0 0 1817.8 398.3;" xml:space="preserve">
<style type="text/css">
	.st0{fill:#F2F2F2;}
	.st1{fill:#E6E6E6;}
	.st2{fill:#3F3D56;}
	.st3{fill:#FFFFFF;}
</style>
<path class="st0" d="M434.4,395.5c0-9.5,7.7-17.2,17.2-17.2s17.1,7.7,17.2,17.2"/>
<path class="st1" d="M451.5,395.5c-0.3,0-0.5-0.2-0.5-0.5v-9c0-0.3,0.2-0.5,0.5-0.5s0.5,0.2,0.5,0.5l0,0v9
	C452,395.3,451.8,395.5,451.5,395.5z"/>
<path class="st1" d="M451.5,392.4c-0.1,0-0.2,0-0.3-0.1l-5.6-4.8c-0.2-0.2-0.2-0.5-0.1-0.7c0.2-0.2,0.5-0.2,0.7-0.1l0,0l5.6,4.8
	c0.2,0.2,0.2,0.5,0,0.7C451.8,392.3,451.7,392.4,451.5,392.4L451.5,392.4z"/>
<path class="st0" d="M487.3,395.5c0-9.5,7.7-17.2,17.2-17.1c9.5,0,17.1,7.7,17.1,17.1"/>
<path class="st1" d="M504.4,395.5c-0.3,0-0.5-0.2-0.5-0.5v-9c0-0.3,0.2-0.5,0.5-0.5s0.5,0.2,0.5,0.5v9
	C504.9,395.3,504.7,395.5,504.4,395.5z"/>
<path class="st1" d="M504.4,392.4c-0.1,0-0.2,0-0.3-0.1l-5.6-4.8c-0.2-0.2-0.2-0.5-0.1-0.7s0.5-0.2,0.7-0.1l0,0l5.6,4.8
	c0.2,0.2,0.2,0.5,0,0.7C504.7,392.3,504.6,392.4,504.4,392.4L504.4,392.4z"/>
<circle class="st0" cx="1189.9" cy="34.3" r="33"/>
<path class="st0" d="M498.5,138c7.9-24.6,27.1-43.6,49.9-55c27-13.4,58.1-15,87.4-9.7c31.7,5.6,61.3,18.7,90,32.9
	c28.1,13.9,55.8,28.7,85,40.2c58.4,23,120.3,35.8,182.9,37.9c56.4,1.9,116.8-4.3,165.1-36c44.3-29.1,72.4-77,87.1-127
	c1.9-6.4,3.5-12.9,5-19.4c0.4-1.9-2.5-2.7-2.9-0.8c-11.8,52.2-37.1,103.8-80.2,137c-46.6,36-107.9,44.3-165.1,43.3
	c-63.4-1.1-126.1-13.2-185.3-35.8c-30-11.4-58.3-26.2-87-40.6c-28-14-56.9-27.1-87.7-33.6c-28.1-5.9-58.3-6.3-85.4,4.2
	c-22.3,8.6-42.7,24-54.6,45.1c-2.9,5.2-5.3,10.6-7.1,16.3C495.1,139,498,139.8,498.5,138L498.5,138z"/>
<path class="st2" d="M926.8,367.7c0.6,0,1-0.4,1-1s-0.4-1-1-1h-9.5v-4h9.5c0.6,0,1-0.4,1-1s-0.4-1-1-1h-81c-0.6,0-1,0.4-1,1
	s0.4,1,1,1h9.5v4h-9.5c-0.6,0-1,0.4-1,1s0.4,1,1,1h9.5v4h-9.5c-0.6,0-1,0.4-1,1s0.4,1,1,1h9.5v4h-8.5c-1.1,0-2,0.9-2,2s0.9,2,2,2
	h8.1c-0.1,0.2-0.1,0.3-0.1,0.5v14c0,0.8,0.7,1.5,1.5,1.5s1.5-0.7,1.5-1.5v-14c0-0.2,0-0.3-0.1-0.5h57.2c-0.1,0.2-0.1,0.3-0.1,0.5v14
	c0,0.8,0.7,1.5,1.5,1.5s1.5-0.7,1.5-1.5v-14c0-0.2,0-0.3-0.1-0.5h8.1c1.1,0,2-0.9,2-2s-0.9-2-2-2h-8.5v-4h9.5c0.6,0,1-0.4,1-1
	s-0.4-1-1-1h-9.5v-4H926.8z M857.3,361.7h58v4h-58V361.7z M915.3,377.7h-58v-4h58V377.7z M915.3,371.7h-58v-4h58V371.7z"/>
<path class="st0" d="M621.9,325.7c0-17.7-14.3-59.6-32-59.6s-32,41.9-32,59.6s14.3,32,32,32C607.5,357.7,621.9,343.4,621.9,325.7
	L621.9,325.7z"/>
<path class="st0" d="M613.9,325.7c0-17.7-14.3-59.6-32-59.6s-32,41.9-32,59.6s14.3,32,32,32C599.5,357.7,613.9,343.4,613.9,325.7
	L613.9,325.7z"/>
<path class="st1" d="M582.9,397.3c-0.6,0-1-0.4-1-1v-89.1c0-0.6,0.4-1,1-1s1,0.4,1,1v89.1C583.9,396.8,583.4,397.3,582.9,397.3z"/>
<path class="st1" d="M582.9,321.7c-0.6,0-1-0.4-1-1c0-0.3,0.1-0.5,0.3-0.7l13.1-13.1c0.4-0.4,1-0.4,1.4,0s0.4,1,0,1.4l-13.1,13.1
	C583.4,321.6,583.1,321.7,582.9,321.7z"/>
<path class="st2" d="M950.9,397.3c-0.6,0-1-0.4-1-1v-89.1c0-0.6,0.4-1,1-1s1,0.4,1,1v89.1C951.9,396.8,951.4,397.3,950.9,397.3z"/>
<path class="st0" d="M1057.9,325.7c0-17.7-14.3-59.6-32-59.6c-17.7,0-32,41.9-32,59.6s14.3,32,32,32
	C1043.5,357.7,1057.9,343.4,1057.9,325.7L1057.9,325.7z"/>
<path class="st0" d="M1049.9,325.7c0-17.7-14.3-59.6-32-59.6c-17.7,0-32,41.9-32,59.6s14.3,32,32,32
	C1035.5,357.7,1049.9,343.4,1049.9,325.7L1049.9,325.7z"/>
<path class="st1" d="M1018.9,397.3c-0.6,0-1-0.4-1-1v-89.1c0-0.6,0.4-1,1-1s1,0.4,1,1v89.1C1019.9,396.8,1019.4,397.3,1018.9,397.3z
	"/>
<path class="st1" d="M1018.9,321.7c-0.6,0-1-0.4-1-1c0-0.3,0.1-0.5,0.3-0.7l13.1-13.1c0.4-0.4,1-0.4,1.4,0s0.4,1,0,1.4l-13.1,13.1
	C1019.4,321.6,1019.1,321.7,1018.9,321.7z"/>
<path class="st0" d="M688.9,51.8h-16c-2.5,0-4.5-2-4.5-4.5v-37c0-2.5,2-4.5,4.5-4.5h16c2.5,0,4.5,2,4.5,4.5v37
	C693.4,49.8,691.3,51.8,688.9,51.8z"/>
<path class="st0" d="M751.9,396.8h-82c-4.7,0-8.5-3.8-8.5-8.5v-331c0-4.7,3.8-8.5,8.5-8.5h82c4.7,0,8.5,3.8,8.5,8.5v331
	C760.4,393,756.6,396.8,751.9,396.8z"/>
<path class="st0" d="M702.9,396.8h-82c-4.7,0-8.5-3.8-8.5-8.5v-331c0-4.7,3.8-8.5,8.5-8.5h82c4.7,0,8.5,3.8,8.5,8.5v331
	C711.4,393,707.6,396.8,702.9,396.8z"/>
<path class="st0" d="M673.9,51.8h-16c-2.5,0-4.5-2-4.5-4.5v-37c0-2.5,2-4.5,4.5-4.5h16c2.5,0,4.5,2,4.5,4.5v37
	C678.4,49.8,676.3,51.8,673.9,51.8z"/>
<path class="st3" d="M652.9,123.8h-19c-1.4,0-2.5-1.1-2.5-2.5v-29c0-1.4,1.1-2.5,2.5-2.5h19c1.4,0,2.5,1.1,2.5,2.5v29
	C655.4,122.7,654.2,123.8,652.9,123.8z"/>
<path class="st3" d="M689.9,123.8h-19c-1.4,0-2.5-1.1-2.5-2.5v-29c0-1.4,1.1-2.5,2.5-2.5h19c1.4,0,2.5,1.1,2.5,2.5v29
	C692.4,122.7,691.2,123.8,689.9,123.8z"/>
<path class="st3" d="M652.9,176.8h-19c-1.4,0-2.5-1.1-2.5-2.5v-29c0-1.4,1.1-2.5,2.5-2.5h19c1.4,0,2.5,1.1,2.5,2.5v29
	C655.4,175.7,654.2,176.8,652.9,176.8z"/>
<path class="st3" d="M689.9,176.8h-19c-1.4,0-2.5-1.1-2.5-2.5v-29c0-1.4,1.1-2.5,2.5-2.5h19c1.4,0,2.5,1.1,2.5,2.5v29
	C692.4,175.7,691.2,176.8,689.9,176.8z"/>
<path class="st3" d="M652.9,229.8h-19c-1.4,0-2.5-1.1-2.5-2.5v-29c0-1.4,1.1-2.5,2.5-2.5h19c1.4,0,2.5,1.1,2.5,2.5v29
	C655.4,228.7,654.2,229.8,652.9,229.8z"/>
<path class="st3" d="M689.9,229.8h-19c-1.4,0-2.5-1.1-2.5-2.5v-29c0-1.4,1.1-2.5,2.5-2.5h19c1.4,0,2.5,1.1,2.5,2.5v29
	C692.4,228.7,691.2,229.8,689.9,229.8z"/>
<path class="st3" d="M652.9,282.8h-19c-1.4,0-2.5-1.1-2.5-2.5v-29c0-1.4,1.1-2.5,2.5-2.5h19c1.4,0,2.5,1.1,2.5,2.5v29
	C655.4,281.7,654.2,282.8,652.9,282.8z"/>
<path class="st3" d="M689.9,282.8h-19c-1.4,0-2.5-1.1-2.5-2.5v-29c0-1.4,1.1-2.5,2.5-2.5h19c1.4,0,2.5,1.1,2.5,2.5v29
	C692.4,281.7,691.2,282.8,689.9,282.8z"/>
<path class="st3" d="M652.9,335.8h-19c-1.4,0-2.5-1.1-2.5-2.5v-29c0-1.4,1.1-2.5,2.5-2.5h19c1.4,0,2.5,1.1,2.5,2.5v29
	C655.4,334.7,654.2,335.8,652.9,335.8z"/>
<path class="st3" d="M689.9,335.8h-19c-1.4,0-2.5-1.1-2.5-2.5v-29c0-1.4,1.1-2.5,2.5-2.5h19c1.4,0,2.5,1.1,2.5,2.5v29
	C692.4,334.7,691.2,335.8,689.9,335.8z"/>
<path class="st0" d="M1101.9,226.8h-16c-2.5,0-4.5-2-4.5-4.5v-21c0-2.5,2-4.5,4.5-4.5h16c2.5,0,4.5,2,4.5,4.5v21
	C1106.4,224.8,1104.3,226.8,1101.9,226.8z"/>
<path class="st0" d="M1236.9,397.8h-82c-4.7,0-8.5-3.8-8.5-8.5v-159c0-4.7,3.8-8.5,8.5-8.5h82c4.7,0,8.5,3.8,8.5,8.5v159
	C1245.4,394,1241.6,397.8,1236.9,397.8z"/>
<path class="st0" d="M1187.9,397.8h-142c-4.7,0-8.5-3.8-8.5-8.5v-159c0-4.7,3.8-8.5,8.5-8.5h142c4.7,0,8.5,3.8,8.5,8.5v159
	C1196.4,394,1192.6,397.8,1187.9,397.8z"/>
<path class="st0" d="M1086.9,226.8h-16c-2.5,0-4.5-2-4.5-4.5v-21c0-2.5,2-4.5,4.5-4.5h16c2.5,0,4.5,2,4.5,4.5v21
	C1091.4,224.8,1089.3,226.8,1086.9,226.8z"/>
<path class="st3" d="M1107.9,300.3h-19c-1.4,0-2.5-1.1-2.5-2.5v-29c0-1.4,1.1-2.5,2.5-2.5h19c1.4,0,2.5,1.1,2.5,2.5v29
	C1110.4,299.2,1109.2,300.3,1107.9,300.3z"/>
<path class="st3" d="M1144.9,300.3h-19c-1.4,0-2.5-1.1-2.5-2.5v-29c0-1.4,1.1-2.5,2.5-2.5h19c1.4,0,2.5,1.1,2.5,2.5v29
	C1147.4,299.2,1146.2,300.3,1144.9,300.3z"/>
<path class="st3" d="M1107.9,353.3h-19c-1.4,0-2.5-1.1-2.5-2.5v-29c0-1.4,1.1-2.5,2.5-2.5h19c1.4,0,2.5,1.1,2.5,2.5v29
	C1110.4,352.2,1109.2,353.3,1107.9,353.3z"/>
<path class="st3" d="M1144.9,353.3h-19c-1.4,0-2.5-1.1-2.5-2.5v-29c0-1.4,1.1-2.5,2.5-2.5h19c1.4,0,2.5,1.1,2.5,2.5v29
	C1147.4,352.2,1146.2,353.3,1144.9,353.3z"/>
<path class="st0" d="M1451.9,398.3H406.1c-0.6,0-1-0.4-1-1s0.4-1,1-1h1045.8c0.6,0,1,0.4,1,1S1452.4,398.3,1451.9,398.3z"/>
<path class="st0" d="M820.9,325.7c0-17.7-14.3-59.6-32-59.6s-32,41.9-32,59.6s14.3,32,32,32C806.5,357.7,820.9,343.4,820.9,325.7
	L820.9,325.7z"/>
<path class="st0" d="M812.9,325.7c0-17.7-14.3-59.6-32-59.6s-32,41.9-32,59.6s14.3,32,32,32C798.5,357.7,812.9,343.4,812.9,325.7
	L812.9,325.7z"/>
<path class="st1" d="M781.9,397.3c-0.6,0-1-0.4-1-1v-89.1c0-0.6,0.4-1,1-1s1,0.4,1,1v89.1C782.9,396.8,782.4,397.3,781.9,397.3z"/>
<path class="st1" d="M781.9,321.7c-0.6,0-1-0.4-1-1c0-0.3,0.1-0.5,0.3-0.7l13.1-13.1c0.4-0.4,1-0.4,1.4,0s0.4,1,0,1.4l-13.1,13.1
	C782.4,321.6,782.1,321.7,781.9,321.7z"/>
<path class="st0" d="M1331.9,325.7c0-17.7-14.3-59.6-32-59.6s-32,41.9-32,59.6s14.3,32,32,32
	C1317.5,357.7,1331.9,343.4,1331.9,325.7L1331.9,325.7z"/>
<path class="st0" d="M1323.9,325.7c0-17.7-14.3-59.6-32-59.6s-32,41.9-32,59.6s14.3,32,32,32
	C1309.5,357.7,1323.9,343.4,1323.9,325.7L1323.9,325.7z"/>
<path class="st1" d="M1292.9,397.3c-0.6,0-1-0.4-1-1v-89.1c0-0.6,0.4-1,1-1s1,0.4,1,1v89.1C1293.9,396.8,1293.4,397.3,1292.9,397.3z
	"/>
<path class="st1" d="M1292.9,321.7c-0.6,0-1-0.4-1-1c0-0.3,0.1-0.5,0.3-0.7l13.1-13.1c0.4-0.4,1-0.4,1.4,0s0.4,1,0,1.4l-13.1,13.1
	C1293.4,321.6,1293.1,321.7,1292.9,321.7z"/>
<path class="st2" d="M961.9,336.8h-22c-1.4,0-2.5-1.1-2.5-2.5v-22c0-1.4,1.1-2.5,2.5-2.5h22c1.4,0,2.5,1.1,2.5,2.5v22
	C964.4,335.7,963.2,336.8,961.9,336.8z"/>
<path class="st0" d="M1318.4,395.5c0-9.5,7.7-17.2,17.2-17.1c9.5,0,17.1,7.7,17.1,17.1"/>
<path class="st1" d="M1335.5,395.5c-0.3,0-0.5-0.2-0.5-0.5v-9c0-0.3,0.2-0.5,0.5-0.5s0.5,0.2,0.5,0.5v9
	C1336,395.3,1335.8,395.5,1335.5,395.5z"/>
<path class="st1" d="M1335.5,392.4c-0.1,0-0.2,0-0.3-0.1l-5.6-4.8c-0.2-0.2-0.2-0.5-0.1-0.7s0.5-0.2,0.7-0.1l0,0l5.6,4.8
	c0.2,0.2,0.2,0.5,0,0.7C1335.8,392.3,1335.7,392.4,1335.5,392.4L1335.5,392.4z"/>
<path class="st0" d="M1371.3,395.5c0-9.5,7.7-17.2,17.2-17.1c9.5,0,17.1,7.7,17.1,17.1"/>
<path class="st1" d="M1388.4,395.5c-0.3,0-0.5-0.2-0.5-0.5l0,0v-9c0-0.3,0.2-0.5,0.5-0.5s0.5,0.2,0.5,0.5v9
	C1388.9,395.3,1388.7,395.5,1388.4,395.5z"/>
<path class="st1" d="M1388.4,392.4c-0.1,0-0.2,0-0.3-0.1l-5.6-4.8c-0.2-0.2-0.2-0.5-0.1-0.7s0.5-0.2,0.7-0.1l0,0l5.6,4.8
	c0.2,0.2,0.2,0.5,0,0.7C1388.7,392.3,1388.6,392.4,1388.4,392.4L1388.4,392.4z"/>
<path class="st0" d="M1795.7,398H749.9c-0.6,0-1-0.4-1-1s0.4-1,1-1h1045.8c0.6,0,1,0.4,1,1S1796.2,398,1795.7,398z"/>
<path class="st0" d="M1675.7,325.4c0-17.7-14.3-59.6-32-59.6s-32,41.9-32,59.6s14.3,32,32,32S1675.7,343.1,1675.7,325.4
	L1675.7,325.4z"/>
<path class="st0" d="M1667.7,325.4c0-17.7-14.3-59.6-32-59.6s-32,41.9-32,59.6s14.3,32,32,32S1667.7,343.1,1667.7,325.4
	L1667.7,325.4z"/>
<path class="st1" d="M1636.7,396.9c-0.6,0-1-0.4-1-1v-89.1c0-0.6,0.4-1,1-1s1,0.4,1,1v89.1C1637.7,396.5,1637.2,396.9,1636.7,396.9z
	"/>
<path class="st1" d="M1636.7,321.4c-0.6,0-1-0.4-1-1c0-0.3,0.1-0.5,0.3-0.7l13.1-13.1c0.4-0.4,1-0.4,1.4,0s0.4,1,0,1.4l-13.1,13.1
	C1637.2,321.3,1636.9,321.4,1636.7,321.4z"/>
<path class="st0" d="M1662.2,395.1c0-9.5,7.7-17.2,17.2-17.1c9.5,0,17.1,7.7,17.1,17.1"/>
<path class="st1" d="M1679.3,395.1c-0.3,0-0.5-0.2-0.5-0.5v-9c0-0.3,0.2-0.5,0.5-0.5s0.5,0.2,0.5,0.5v9
	C1679.8,394.9,1679.6,395.1,1679.3,395.1z"/>
<path class="st1" d="M1679.3,392c-0.1,0-0.2,0-0.3-0.1l-5.6-4.8c-0.2-0.2-0.2-0.5-0.1-0.7s0.5-0.2,0.7-0.1l0,0l5.6,4.8
	c0.2,0.2,0.2,0.5,0,0.7C1679.6,392,1679.5,392,1679.3,392L1679.3,392z"/>
<path class="st0" d="M1715.1,395.1c0-9.5,7.7-17.2,17.2-17.1c9.5,0,17.1,7.7,17.1,17.1"/>
<path class="st1" d="M1732.2,395.1c-0.3,0-0.5-0.2-0.5-0.5l0,0v-9c0-0.3,0.2-0.5,0.5-0.5s0.5,0.2,0.5,0.5v9
	C1732.7,394.9,1732.5,395.1,1732.2,395.1z"/>
<path class="st1" d="M1732.2,392c-0.1,0-0.2,0-0.3-0.1l-5.6-4.8c-0.2-0.2-0.2-0.5-0.1-0.7s0.5-0.2,0.7-0.1l0,0l5.6,4.8
	c0.2,0.2,0.2,0.5,0,0.7C1732.5,392,1732.4,392,1732.2,392L1732.2,392z"/>
<path class="st0" d="M91.9,397.1c0-9.5,7.7-17.2,17.2-17.2s17.1,7.7,17.2,17.2"/>
<path class="st1" d="M109.1,397.1c-0.3,0-0.5-0.2-0.5-0.5v-9c0-0.3,0.2-0.5,0.5-0.5s0.5,0.2,0.5,0.5l0,0v9
	C109.6,396.9,109.4,397.1,109.1,397.1z"/>
<path class="st1" d="M109.1,394c-0.1,0-0.2,0-0.3-0.1l-5.6-4.8c-0.2-0.2-0.2-0.5-0.1-0.7c0.2-0.2,0.5-0.2,0.7-0.1l0,0l5.6,4.8
	c0.2,0.2,0.2,0.5,0,0.7C109.4,394,109.2,394,109.1,394L109.1,394z"/>
<path class="st0" d="M144.8,395.1c0-9.5,7.7-17.2,17.2-17.1c9.5,0,17.1,7.7,17.1,17.1"/>
<path class="st1" d="M162,395.1c-0.3,0-0.5-0.2-0.5-0.5v-9c0-0.3,0.2-0.5,0.5-0.5s0.5,0.2,0.5,0.5v9
	C162.4,394.9,162.2,395.1,162,395.1z"/>
<path class="st1" d="M162,392c-0.1,0-0.2,0-0.3-0.1l-5.6-4.8c-0.2-0.2-0.2-0.5-0.1-0.7c0.2-0.2,0.5-0.2,0.7-0.1l0,0l5.6,4.8
	c0.2,0.2,0.2,0.5,0,0.7C162.2,392,162.1,392,162,392L162,392z"/>
<path class="st0" d="M279.4,325.4c0-17.7-14.3-59.6-32-59.6s-32,41.9-32,59.6s14.3,32,32,32S279.4,343.1,279.4,325.4L279.4,325.4z"
	/>
<path class="st0" d="M271.4,325.4c0-17.7-14.3-59.6-32-59.6s-32,41.9-32,59.6s14.3,32,32,32S271.4,343.1,271.4,325.4L271.4,325.4z"
	/>
<path class="st1" d="M240.4,396.9c-0.6,0-1-0.4-1-1v-89.1c0-0.6,0.4-1,1-1s1,0.4,1,1v89.1C241.4,396.5,241,396.9,240.4,396.9z"/>
<path class="st1" d="M240.4,321.4c-0.6,0-1-0.4-1-1c0-0.3,0.1-0.5,0.3-0.7l13.1-13.1c0.4-0.4,1-0.4,1.4,0s0.4,1,0,1.4l-13.1,13.1
	C240.9,321.3,240.7,321.4,240.4,321.4z"/>
<path class="st0" d="M1109.4,398H63.6c-0.6,0-1-0.4-1-1s0.4-1,1-1h1045.8c0.6,0,1,0.4,1,1S1110,398,1109.4,398z"/>
</svg>
